<svg width="37" height="38" viewBox="0 0 37 38" fill="none" xmlns="http://www.w3.org/2000/svg">
<path d="M22.0594 38H14.9406C14.4661 38 14.0548 37.8417 13.7067 37.525C13.3587 37.2083 13.1531 36.8125 13.0898 36.3375L12.5203 31.92C12.109 31.7617 11.7217 31.5717 11.3585 31.35C10.994 31.1283 10.6378 30.8908 10.2898 30.6375L6.16091 32.3475C5.71797 32.5058 5.27503 32.5217 4.83209 32.395C4.38915 32.2683 4.04112 31.9992 3.78801 31.5875L0.276119 25.46C0.0230099 25.0483 -0.0560868 24.605 0.0388293 24.13C0.133745 23.655 0.371035 23.275 0.7507 22.99L4.31005 20.2825C4.27841 20.0608 4.26259 19.8468 4.26259 19.6403V18.3578C4.26259 18.1526 4.27841 17.9392 4.31005 17.7175L0.7507 15.01C0.371035 14.725 0.133745 14.345 0.0388293 13.87C-0.0560868 13.395 0.0230099 12.9517 0.276119 12.54L3.78801 6.4125C4.00948 5.96917 4.34928 5.69177 4.80741 5.5803C5.26681 5.4701 5.71797 5.49417 6.16091 5.6525L10.2898 7.3625C10.6378 7.10917 11.0016 6.87167 11.3813 6.65C11.761 6.42833 12.1406 6.23833 12.5203 6.08L13.0898 1.6625C13.1531 1.1875 13.3587 0.791667 13.7067 0.475C14.0548 0.158333 14.4661 0 14.9406 0H22.0594C22.5339 0 22.9452 0.158333 23.2933 0.475C23.6413 0.791667 23.8469 1.1875 23.9102 1.6625L24.4797 6.08C24.891 6.23833 25.2789 6.42833 25.6434 6.65C26.0066 6.87167 26.3622 7.10917 26.7102 7.3625L30.8391 5.6525C31.282 5.49417 31.725 5.47833 32.1679 5.605C32.6109 5.73167 32.9589 6.00083 33.212 6.4125L36.7239 12.54C36.977 12.9517 37.0561 13.395 36.9612 13.87C36.8663 14.345 36.629 14.725 36.2493 15.01L32.6899 17.7175C32.7216 17.9392 32.7374 18.1526 32.7374 18.3578V19.6403C32.7374 19.8468 32.7058 20.0608 32.6425 20.2825L36.2018 22.99C36.5815 23.275 36.8188 23.655 36.9137 24.13C37.0086 24.605 36.9295 25.0483 36.6764 25.46L33.1645 31.54C32.9114 31.9517 32.5558 32.2291 32.0977 32.3722C31.6383 32.5141 31.1871 32.5058 30.7442 32.3475L26.7102 30.6375C26.3622 30.8908 25.9984 31.1283 25.6187 31.35C25.239 31.5717 24.8594 31.7617 24.4797 31.92L23.9102 36.3375C23.8469 36.8125 23.6413 37.2083 23.2933 37.525C22.9452 37.8417 22.5339 38 22.0594 38ZM18.5949 25.65C20.43 25.65 21.9961 25.0008 23.2933 23.7025C24.5904 22.4042 25.239 20.8367 25.239 19C25.239 17.1633 24.5904 15.5958 23.2933 14.2975C21.9961 12.9992 20.43 12.35 18.5949 12.35C16.7282 12.35 15.1539 12.9992 13.8719 14.2975C12.5912 15.5958 11.9508 17.1633 11.9508 19C11.9508 20.8367 12.5912 22.4042 13.8719 23.7025C15.1539 25.0008 16.7282 25.65 18.5949 25.65Z" fill="black"/>
</svg>
